# Blender v2.74 (sub 0) OBJ File: 'chess.blend'
# www.blender.org
mtllib board.mtl
g Cube.003_Cube
v 4.200000 -4.200000 -0.177778
v 4.200000 -4.200000 0.177778
v -4.200000 -4.200000 -0.177778
v -4.200000 -4.200000 0.177778
v 4.200000 4.200000 -0.177778
v 4.200000 4.200000 0.177778
v -4.200000 4.200000 -0.177778
v -4.200000 4.200000 0.177778
v 4.116000 -4.116000 0.222222
v -4.116000 -4.116000 0.222222
v -4.116000 4.116000 0.222222
v 4.116000 4.116000 0.222222
v 4.000000 -4.000000 0.222222
v -4.000000 -4.000000 0.222222
v -4.000000 4.000000 0.222222
v 4.000000 4.000000 0.222222
vt 0.854637 0.000000
vt 0.845657 0.010000
vt 0.008113 0.010000
vt 0.833855 0.023809
vt 0.019915 0.023810
vt 0.000000 0.000000
vt 0.963659 0.000000
vt 1.000000 0.000000
vt 1.000000 1.000000
vt 0.927319 0.000000
vt 0.963659 1.000000
vt 0.890978 0.000000
vt 0.890978 1.000000
vt 0.927319 1.000000
vt 0.008114 0.990000
vt 0.019916 0.976190
vt 0.854637 1.000000
vt 0.845658 0.990000
vt 0.000000 1.000000
vt 0.833855 0.976190
vn 0.000000 0.467700 0.883900
vn 0.000000 0.000000 1.000000
vn 0.000000 -1.000000 0.000000
vn -1.000000 0.000000 0.000000
vn 0.000000 1.000000 0.000000
vn 1.000000 0.000000 0.000000
vn 0.467700 0.000000 0.883900
vn -0.467700 0.000000 0.883900
vn 0.000000 -0.467700 0.883900
usemtl Material
s off
f 8/1/1 11/2/1 12/3/1
f 11/2/2 15/4/2 16/5/2
f 6/6/1 8/1/1 12/3/1
f 12/3/2 11/2/2 16/5/2
usemtl Material_NONE
f 4/7/3 3/8/3 1/9/3
f 8/10/4 7/7/4 3/11/4
f 6/1/5 5/12/5 7/13/5
f 2/14/6 1/13/6 5/12/6
f 6/6/7 12/3/7 9/15/7
f 12/3/2 16/5/2 13/16/2
f 4/17/8 10/18/8 11/2/8
f 2/19/9 9/15/9 10/18/9
f 10/18/2 14/20/2 15/4/2
f 9/15/2 13/16/2 14/20/2
f 2/11/3 4/7/3 1/9/3
f 4/14/4 8/10/4 3/11/4
f 8/17/5 6/1/5 7/13/5
f 6/10/6 2/14/6 5/12/6
f 2/19/7 6/6/7 9/15/7
f 9/15/2 12/3/2 13/16/2
f 8/1/8 4/17/8 11/2/8
f 4/17/9 2/19/9 10/18/9
f 11/2/2 10/18/2 15/4/2
f 10/18/2 9/15/2 14/20/2
