# Blender v2.74 (sub 0) OBJ File: 'chess.blend'
# www.blender.org
mtllib board.mtl
g Cube.003_Cube
v 4.200000 -4.200000 -0.177778
v 4.200000 -4.200000 0.177778
v -4.200000 -4.200000 -0.177778
v -4.200000 -4.200000 0.177778
v 4.200000 4.200000 -0.177778
v 4.200000 4.200000 0.177778
v -4.200000 4.200000 -0.177778
v -4.200000 4.200000 0.177778
v 4.116000 -4.116000 0.222222
v -4.116000 -4.116000 0.222222
v -4.116000 4.116000 0.222222
v 4.116000 4.116000 0.222222
vt 0.923868 0.917250
vt 0.915315 0.908703
vt 0.915315 0.071136
vt 0.923867 0.062590
vt 0.393240 0.054374
vt 0.429439 0.054374
vt 0.429439 0.909035
vt 0.385878 0.046159
vt 0.422077 0.046159
vt 0.422077 0.900819
vt 0.385572 0.054374
vt 0.421772 0.054374
vt 0.421772 0.909035
vt 0.424328 0.909035
vt 0.388129 0.909035
vt 0.388128 0.054374
vt 0.063858 0.054639
vt 0.919061 0.054639
vt 0.919061 0.909299
vt 0.077216 0.071136
vt 0.077217 0.908703
vt 0.068664 0.917250
vt 0.068664 0.062590
vt 0.393240 0.909035
vt 0.385878 0.900819
vt 0.385573 0.909035
vt 0.424327 0.054374
vt 0.063858 0.909299
vn 0.000000 0.467700 0.883900
vn 0.000000 -1.000000 0.000000
vn -1.000000 0.000000 0.000000
vn 0.000000 1.000000 0.000000
vn 1.000000 0.000000 0.000000
vn 0.000000 0.000000 -1.000000
vn 0.467700 0.000000 0.883900
vn 0.000000 0.000000 1.000000
vn -0.467700 0.000000 0.883900
vn 0.000000 -0.467700 0.883900
usemtl Material
s off
f 8/1/1 11/2/1 12/3/1
f 6/4/1 8/1/1 12/3/1
usemtl Material_NONE
f 4/5/2 3/6/2 1/7/2
f 8/8/3 7/9/3 3/10/3
f 6/11/4 5/12/4 7/13/4
f 2/14/5 1/15/5 5/16/5
f 3/17/6 7/18/6 5/19/6
f 6/4/7 12/3/7 9/20/7
f 11/2/8 10/21/8 9/20/8
f 4/22/9 10/21/9 11/2/9
f 2/23/10 9/20/10 10/21/10
f 2/24/2 4/5/2 1/7/2
f 4/25/3 8/8/3 3/10/3
f 8/26/4 6/11/4 7/13/4
f 6/27/5 2/14/5 5/16/5
f 1/28/6 3/17/6 5/19/6
f 2/23/7 6/4/7 9/20/7
f 12/3/8 11/2/8 9/20/8
f 8/1/9 4/22/9 11/2/9
f 4/22/10 2/23/10 10/21/10
